<?xml version="1.0" standalone="no"?>
<!DOCTYPE svg PUBLIC "-//W3C//DTD SVG 20010904//EN"
 "http://www.w3.org/TR/2001/REC-SVG-20010904/DTD/svg10.dtd">
<svg version="1.0" xmlns="http://www.w3.org/2000/svg"
 width="2023.000000pt" height="2023.000000pt" viewBox="0 0 2023.000000 2023.000000"
 preserveAspectRatio="xMidYMid meet">
<metadata>
Created by potrace 1.14, written by Peter Selinger 2001-2017
</metadata>
<g transform="translate(0.000000,2023.000000) scale(0.100000,-0.100000)"
fill="#000000" stroke="none">
<path d="M9983 19284 c-91 -15 -148 -34 -303 -99 -69 -28 -231 -96 -360 -149
-129 -54 -248 -104 -265 -111 -16 -7 -70 -30 -120 -50 -49 -20 -99 -40 -110
-45 -11 -5 -92 -39 -180 -75 -88 -36 -169 -70 -180 -75 -11 -5 -103 -43 -205
-84 -311 -125 -463 -186 -507 -207 -24 -10 -49 -19 -56 -19 -8 0 -17 -3 -20
-6 -6 -6 -110 -52 -132 -58 -5 -2 -21 -8 -35 -13 -287 -121 -2550 -1012 -2610
-1028 -8 -2 -121 -45 -250 -95 -129 -50 -487 -186 -795 -301 -636 -239 -610
-229 -690 -260 -33 -13 -62 -24 -65 -25 -3 0 -16 -5 -30 -11 -14 -5 -108 -40
-210 -77 -102 -37 -194 -72 -205 -77 -18 -8 -83 -32 -285 -103 -41 -15 -84
-31 -95 -36 -11 -4 -69 -26 -130 -48 -60 -22 -166 -60 -235 -85 -69 -26 -233
-85 -365 -132 -132 -47 -247 -89 -255 -92 -8 -3 -19 -7 -25 -9 -5 -1 -116 -41
-245 -87 -129 -47 -300 -109 -380 -137 -267 -95 -366 -153 -412 -244 -44 -85
-16 -202 63 -269 55 -48 138 -86 387 -178 119 -44 269 -100 332 -124 172 -64
762 -283 865 -320 50 -18 239 -87 420 -152 182 -66 348 -124 370 -129 44 -11
156 -11 225 0 39 7 75 13 155 29 11 3 38 8 60 11 35 7 477 100 530 112 11 3
31 7 45 10 14 2 57 11 95 20 39 8 81 17 95 20 69 14 128 25 155 30 17 3 75 14
130 24 55 11 116 22 135 25 19 3 60 10 90 15 30 5 75 12 100 15 25 2 61 7 80
10 68 9 116 14 185 20 39 4 86 8 105 10 256 27 953 27 1285 0 105 -8 189 -16
220 -20 17 -3 50 -7 75 -9 25 -3 79 -10 120 -16 41 -6 91 -13 110 -16 56 -7
108 -15 205 -34 28 -5 61 -12 75 -14 24 -4 163 -33 205 -43 11 -2 30 -6 41 -8
74 -16 314 -81 454 -124 583 -178 1123 -429 1658 -772 210 -135 520 -361 687
-501 49 -41 98 -78 105 -78 6 0 145 89 175 112 6 5 39 28 75 52 36 25 106 73
155 107 579 402 858 564 1350 784 261 117 804 308 1020 360 11 3 74 18 140 35
125 32 403 92 490 106 28 4 52 8 55 9 3 0 27 4 53 9 27 4 56 9 65 10 10 2 44
7 77 11 32 4 67 8 76 10 15 3 127 16 264 31 66 7 67 7 275 20 258 16 831 10
1075 -11 147 -13 285 -27 395 -41 30 -4 66 -8 80 -9 14 -2 59 -8 100 -15 41
-6 84 -13 95 -14 11 -2 40 -7 65 -10 25 -4 52 -9 60 -11 8 -2 35 -7 60 -10 41
-6 299 -57 428 -85 29 -7 67 -24 84 -38 56 -47 133 -185 154 -274 2 -10 7 -28
10 -40 3 -13 8 -53 11 -89 8 -92 -7 -130 -68 -174 -61 -44 -91 -77 -105 -118
-10 -30 -10 -137 0 -182 2 -11 5 -41 5 -66 l1 -46 473 1 472 1 0 177 c0 137
-3 179 -13 183 -7 3 -53 10 -103 17 -49 6 -89 16 -90 22 -4 38 -7 89 -13 231
-22 525 -25 556 -73 715 -51 173 -136 320 -264 454 -123 130 -240 211 -459
318 -298 145 -415 179 -905 262 -16 3 -88 14 -160 26 -71 11 -157 25 -190 30
-33 6 -76 12 -95 15 -19 3 -46 7 -60 10 -14 2 -50 7 -80 10 -30 3 -62 8 -70
10 -8 2 -35 6 -60 9 -25 3 -54 8 -65 10 -11 2 -47 7 -80 10 -66 8 -106 13
-161 21 -19 3 -56 7 -82 10 -26 3 -81 10 -122 15 -95 12 -159 19 -235 25 -33
3 -71 8 -85 10 -14 2 -59 6 -100 10 -41 3 -91 8 -110 10 -19 2 -73 7 -120 10
-47 3 -101 8 -120 10 -47 6 -237 18 -475 30 -324 17 -852 23 -1040 11 -290
-18 -528 -64 -770 -149 -235 -83 -481 -224 -685 -394 -214 -177 -358 -254
-530 -281 -315 -49 -653 143 -773 438 -14 36 -31 90 -37 120 -11 55 -15 224
-6 251 3 8 8 31 11 53 18 125 97 284 192 387 127 137 345 250 507 263 57 4
156 -15 206 -40 40 -20 180 -159 180 -178 0 -7 -14 -24 -32 -37 -17 -13 -36
-29 -42 -35 -6 -6 -29 -23 -51 -37 -22 -15 -54 -37 -71 -49 -17 -13 -44 -32
-60 -43 -121 -82 -238 -184 -260 -228 -10 -19 -15 -55 -14 -110 1 -45 2 -99 2
-121 l0 -38 122 4 c142 5 179 20 283 112 271 239 625 443 978 563 100 34 330
94 415 109 25 4 47 8 50 9 3 1 34 5 70 10 36 5 67 9 70 10 3 1 46 5 95 9 50 4
104 10 120 12 39 5 434 6 460 0 11 -2 74 -7 140 -11 66 -3 136 -8 155 -10 19
-2 73 -6 120 -10 47 -3 103 -7 125 -10 22 -2 81 -7 130 -10 50 -3 106 -8 125
-10 19 -2 67 -7 105 -10 39 -3 93 -8 120 -10 133 -12 175 -16 230 -21 33 -3
76 -7 95 -9 19 -2 64 -7 100 -10 103 -9 173 -16 205 -20 17 -2 62 -7 100 -10
39 -4 81 -8 95 -10 14 -2 54 -6 90 -10 36 -4 76 -8 90 -10 14 -2 54 -7 90 -10
36 -4 79 -9 95 -11 17 -2 55 -6 85 -9 30 -3 66 -8 80 -10 14 -2 50 -6 80 -10
30 -3 89 -10 130 -16 41 -5 89 -12 105 -14 104 -13 151 -19 155 -20 3 -1 34
-5 70 -9 36 -5 74 -10 84 -12 11 -2 56 -8 100 -14 45 -6 92 -13 106 -15 14 -3
43 -7 65 -10 40 -6 183 -30 240 -41 49 -8 157 -33 200 -45 22 -6 58 -15 80
-21 48 -13 212 -65 240 -77 11 -5 56 -23 100 -41 255 -106 488 -267 645 -444
91 -103 100 -115 155 -200 153 -237 249 -490 320 -846 1 -8 8 -49 14 -90 7
-41 14 -80 16 -87 3 -8 34 0 97 23 51 19 275 100 498 180 223 80 414 149 425
154 11 5 128 47 260 95 132 47 249 90 260 95 11 5 79 31 151 58 167 63 217 95
272 171 40 55 41 93 5 169 -33 71 -140 180 -208 211 -27 13 -97 41 -155 61
-58 21 -233 86 -390 145 -157 58 -292 108 -300 110 -8 2 -62 22 -120 44 -58
22 -289 108 -515 191 -225 83 -426 157 -445 165 -19 7 -123 46 -230 85 -107
39 -211 77 -230 85 -29 12 -294 111 -699 262 -145 54 -748 285 -776 298 -16 7
-97 39 -180 70 -202 78 -755 293 -780 304 -11 5 -78 32 -150 60 -71 27 -249
97 -395 154 -146 58 -364 144 -485 191 -121 48 -454 180 -740 294 -286 113
-522 206 -525 207 -3 0 -45 17 -95 37 -49 20 -344 138 -655 262 -311 123 -770
306 -1020 406 -436 175 -563 220 -659 235 -76 12 -194 12 -268 -1z"/>
<path d="M17199 12936 c-2 -2 -24 -6 -49 -9 -156 -19 -294 -85 -395 -191 -121
-127 -179 -283 -259 -701 -21 -104 -45 -229 -55 -278 -17 -78 -17 -88 -3 -96
11 -6 16 -30 18 -92 5 -126 15 -195 39 -288 103 -398 407 -669 751 -669 392 0
734 268 835 655 36 137 33 415 -7 676 -3 23 -7 51 -9 62 -18 129 -76 385 -110
490 -67 205 -193 339 -375 400 -30 11 -59 20 -65 21 -5 1 -26 5 -45 9 -38 7
-265 16 -271 11z"/>
<path d="M10073 12337 c-202 -214 -439 -667 -604 -1154 -73 -214 -136 -462
-159 -622 -6 -42 -13 -89 -15 -106 -6 -36 -6 -372 -1 -400 2 -11 7 -58 11
-105 4 -47 9 -92 10 -100 9 -68 19 -127 31 -195 23 -123 24 -128 34 -165 5
-19 11 -46 14 -60 12 -62 51 -197 97 -335 106 -316 240 -595 402 -840 77 -116
199 -274 212 -275 10 0 55 71 178 285 233 404 409 784 499 1075 33 109 84 330
93 409 4 30 8 63 11 74 18 97 25 501 10 642 -6 60 -35 245 -51 325 -33 170
-122 443 -217 665 -101 237 -308 623 -479 892 l-26 43 -50 -53z"/>
<path d="M4980 11478 c-20 -7 -22 -12 -15 -56 3 -26 9 -63 11 -82 22 -166 116
-542 163 -655 5 -11 25 -65 46 -120 96 -254 220 -491 400 -765 89 -134 225
-325 244 -340 4 -3 22 -25 41 -50 128 -166 358 -397 580 -584 177 -148 455
-325 692 -439 166 -80 267 -120 501 -198 115 -38 266 -92 335 -120 324 -129
661 -334 912 -554 91 -80 222 -167 234 -155 15 15 9 191 -9 260 -2 8 -6 35 -9
60 -21 158 -76 394 -138 590 -28 88 -108 300 -127 338 -5 9 -34 69 -65 132
-83 172 -127 249 -241 420 -92 138 -225 312 -325 425 -102 117 -364 366 -432
413 -13 9 -27 21 -33 28 -13 15 -202 149 -290 206 -223 143 -368 218 -710 368
-22 9 -74 29 -115 44 -41 15 -84 31 -95 36 -11 5 -63 23 -115 41 -300 102
-633 256 -880 406 -181 111 -355 232 -448 313 -46 41 -76 51 -112 38z"/>
<path d="M15189 11456 c-37 -19 -95 -56 -130 -83 -303 -237 -757 -478 -1182
-628 -213 -75 -309 -112 -422 -160 -853 -366 -1495 -917 -1889 -1623 -60 -107
-146 -283 -189 -387 -32 -78 -118 -314 -123 -339 -2 -11 -10 -40 -18 -65 -20
-59 -73 -267 -81 -311 -3 -19 -10 -51 -15 -70 -5 -19 -12 -55 -15 -80 -4 -25
-10 -63 -15 -85 -5 -22 -11 -62 -15 -90 -3 -27 -7 -61 -10 -75 -2 -14 -6 -45
-10 -69 -7 -42 -6 -43 16 -36 47 14 135 66 179 106 255 229 432 354 683 483
176 90 268 129 452 190 438 147 748 276 975 407 358 207 797 611 1089 999 39
52 75 100 79 105 4 6 35 51 68 100 160 238 303 512 412 790 61 154 163 477
178 562 3 15 9 44 14 63 5 19 11 51 14 70 3 19 8 49 11 65 8 48 14 87 20 130
3 22 8 46 10 53 7 19 -15 14 -86 -22z"/>
<path d="M2927 9204 c-1 -1 -36 -5 -77 -9 -144 -12 -190 -19 -305 -44 -159
-35 -433 -123 -436 -139 -1 -4 -2 -850 -3 -1881 -1 -1789 0 -1874 17 -1880 10
-4 43 -4 75 -1 115 10 827 0 1007 -15 28 -2 97 -7 155 -10 58 -3 121 -8 140
-10 19 -2 78 -7 130 -11 52 -3 103 -8 113 -10 10 -2 55 -6 100 -9 45 -3 93 -8
107 -10 26 -4 94 -12 170 -20 25 -3 62 -7 83 -10 20 -3 54 -7 75 -10 60 -8
314 -44 347 -50 17 -3 59 -10 95 -16 36 -5 85 -14 110 -19 25 -5 119 -23 210
-41 91 -17 224 -44 295 -61 72 -16 141 -32 155 -34 14 -3 33 -7 42 -10 9 -3
25 -7 35 -9 20 -4 195 -51 313 -83 675 -185 1382 -481 1895 -795 73 -45 329
-211 335 -217 3 -3 39 -30 80 -60 41 -29 80 -59 86 -64 6 -6 22 -18 34 -26 12
-8 36 -27 53 -41 127 -105 199 -168 245 -211 29 -28 56 -47 60 -43 4 4 1 10
-5 12 -7 3 -13 9 -13 14 0 16 -141 207 -249 338 -105 126 -458 487 -560 571
-30 25 -63 54 -75 65 -12 11 -75 63 -141 116 -649 518 -1399 918 -2250 1200
-66 22 -127 42 -135 44 -8 3 -69 21 -135 41 -117 35 -460 127 -540 143 -22 5
-94 20 -160 34 -66 15 -131 28 -145 31 -14 2 -36 7 -50 10 -31 7 -41 9 -266
46 -100 17 -203 32 -230 35 -27 3 -60 8 -74 10 -43 8 -90 14 -240 30 -188 20
-217 22 -325 31 -49 4 -101 8 -115 9 -14 2 -32 3 -41 4 -14 1 -16 114 -15
1248 l1 1247 65 44 c118 81 352 176 480 197 19 3 60 10 90 15 159 27 399 29
580 5 73 -10 203 -33 235 -41 13 -4 10 1 -10 15 -16 12 -34 21 -39 21 -5 0
-17 6 -25 13 -29 25 -249 117 -388 163 -169 55 -338 95 -463 110 -30 3 -58 8
-61 10 -15 9 -434 26 -442 18z"/>
<path d="M17057 9204 c-1 -1 -36 -5 -77 -8 -41 -4 -95 -9 -120 -11 -49 -5
-290 -50 -297 -55 -3 -3 -5 -3 -53 -14 -59 -13 -249 -77 -340 -113 -143 -58
-359 -171 -285 -149 11 3 36 8 55 11 19 3 42 8 50 10 8 2 35 7 60 10 25 3 56
8 70 10 95 17 333 22 459 10 195 -18 378 -65 531 -138 76 -36 189 -106 208
-130 12 -14 14 -231 14 -1252 0 -680 -2 -1239 -5 -1241 -3 -3 -31 -7 -63 -9
-63 -5 -151 -13 -224 -20 -25 -2 -75 -7 -112 -10 -37 -3 -75 -7 -85 -9 -10 -2
-49 -7 -88 -10 -38 -4 -77 -9 -85 -11 -8 -2 -42 -6 -75 -10 -33 -3 -71 -8 -85
-10 -31 -6 -72 -12 -130 -20 -25 -3 -83 -13 -130 -21 -47 -9 -94 -17 -105 -18
-11 -2 -33 -6 -50 -9 -16 -4 -46 -9 -65 -12 -19 -3 -42 -8 -50 -10 -8 -2 -31
-7 -50 -10 -19 -3 -73 -15 -120 -25 -47 -11 -96 -22 -110 -24 -52 -9 -361 -89
-510 -132 -153 -45 -547 -174 -605 -199 -16 -7 -95 -38 -174 -69 -464 -183
-899 -409 -1313 -682 -485 -320 -866 -650 -1233 -1069 -94 -107 -311 -402
-303 -411 2 -2 33 24 68 57 240 221 656 523 945 684 356 198 640 332 995 468
240 92 589 207 795 262 325 88 775 191 964 221 18 3 43 8 55 10 11 2 35 6 51
9 17 3 41 7 55 10 14 3 39 7 55 9 17 3 73 11 125 20 52 8 118 18 145 22 28 3
58 8 67 9 9 2 48 7 85 10 37 4 70 9 73 10 3 2 37 6 75 10 39 4 77 9 85 10 8 2
47 6 85 10 39 4 81 8 95 10 14 2 61 7 105 10 108 8 179 14 245 20 30 3 100 7
155 10 55 3 121 8 146 10 133 13 751 22 1002 15 48 -1 90 0 94 3 5 6 7 3756 1
3761 -20 18 -333 118 -408 131 -19 3 -42 8 -50 10 -18 5 -57 12 -119 21 -25 4
-55 8 -65 10 -57 10 -420 25 -429 18z"/>
<path d="M4933 8643 c4 -130 31 -252 106 -480 92 -277 251 -621 388 -841 277
-444 572 -788 933 -1088 149 -123 386 -294 409 -294 5 0 11 -4 13 -8 3 -7 31
-25 133 -82 152 -86 379 -187 550 -245 69 -23 335 -95 406 -109 52 -10 149
-38 254 -73 398 -130 749 -315 1033 -545 73 -59 108 -78 141 -78 16 0 17 10
15 110 -1 60 -5 117 -8 127 -3 10 -8 36 -12 58 -15 101 -47 223 -111 420 -130
402 -318 759 -579 1095 -114 147 -385 419 -539 542 -129 102 -336 248 -353
248 -6 0 -12 4 -14 8 -6 15 -238 143 -383 213 -200 95 -335 147 -724 276 -189
62 -412 141 -496 174 -346 137 -689 334 -970 557 -6 5 -33 24 -60 43 -28 19
-66 46 -86 62 -20 15 -39 27 -42 27 -4 0 -5 -53 -4 -117z"/>
<path d="M15233 8726 c-28 -17 -62 -40 -75 -51 -106 -92 -354 -266 -504 -353
-121 -70 -310 -163 -462 -226 -146 -61 -362 -131 -682 -221 -8 -2 -64 -22
-125 -44 -60 -21 -126 -44 -145 -51 -19 -6 -44 -16 -55 -20 -11 -5 -65 -28
-120 -51 -141 -58 -337 -157 -460 -232 -69 -42 -211 -132 -215 -137 -3 -3 -36
-28 -75 -55 -245 -173 -588 -508 -758 -740 -20 -27 -40 -54 -44 -60 -46 -59
-159 -234 -215 -335 -31 -55 -102 -193 -104 -200 0 -3 -17 -41 -38 -85 -39
-83 -118 -291 -154 -406 -28 -86 -89 -325 -96 -370 -3 -20 -8 -42 -10 -50 -3
-8 -7 -30 -10 -49 -3 -19 -8 -46 -10 -60 -14 -72 -25 -154 -22 -158 6 -5 150
67 161 81 22 28 198 155 350 252 213 137 580 289 910 378 109 29 159 41 260
63 93 19 375 115 473 160 29 13 55 24 58 24 11 0 249 121 309 158 220 131 385
251 580 422 74 65 311 304 386 390 149 171 302 376 403 540 33 52 67 106 76
120 15 22 115 207 146 270 101 206 229 538 270 698 2 9 18 69 35 132 32 117
42 249 23 282 -8 13 -16 11 -61 -16z"/>
<path d="M787 7614 c-1 -1 -49 -4 -107 -8 -58 -3 -114 -8 -125 -10 -11 -2 -42
-7 -70 -10 -121 -17 -374 -89 -455 -131 l-25 -13 0 -1983 0 -1984 50 1 c28 1
104 4 170 9 522 32 1305 37 1845 10 248 -12 312 -16 365 -20 33 -3 96 -7 140
-10 92 -6 188 -14 260 -20 28 -2 82 -7 120 -10 39 -4 84 -8 100 -10 17 -2 62
-7 100 -10 39 -3 106 -10 150 -15 44 -5 105 -12 135 -15 30 -3 66 -8 80 -10
14 -2 50 -7 80 -10 30 -3 66 -8 80 -10 14 -2 95 -13 180 -25 85 -11 164 -22
175 -24 11 -2 41 -6 66 -10 55 -8 46 -7 279 -46 193 -32 194 -33 275 -49 28
-5 70 -12 95 -16 24 -4 48 -8 51 -11 4 -2 24 -6 45 -9 22 -4 122 -24 224 -46
102 -22 196 -42 210 -45 14 -3 54 -12 90 -20 36 -9 75 -18 87 -20 119 -23 717
-185 968 -262 511 -156 1194 -411 1560 -582 22 -10 83 -38 135 -62 340 -154
789 -392 1125 -595 345 -209 863 -566 857 -592 -3 -14 3 -14 20 2 85 83 633
452 923 621 55 32 116 69 135 81 19 12 64 38 100 58 36 19 85 46 110 60 134
73 226 121 432 224 125 62 229 113 231 113 3 0 54 23 113 51 151 70 159 74
307 136 263 110 580 233 742 288 44 15 143 49 220 75 205 70 615 197 693 215
10 2 58 16 107 30 50 14 171 46 270 71 99 25 187 47 195 49 8 2 44 11 80 19
36 8 117 26 180 41 265 60 698 145 870 171 19 3 42 7 50 9 8 2 35 7 60 10 25
3 83 12 130 20 47 8 101 16 120 19 19 3 85 12 145 21 61 9 128 18 150 20 22 3
49 7 60 9 11 2 49 7 85 11 36 3 72 8 80 10 8 2 49 7 90 10 41 4 77 8 80 10 3
1 45 6 94 10 50 4 97 8 105 10 9 2 52 6 96 10 44 4 94 8 110 10 17 2 64 6 105
10 41 3 95 7 120 9 25 2 95 7 155 11 61 4 126 8 145 10 19 2 98 6 175 10 77 4
165 9 195 10 415 27 1382 22 1813 -9 45 -3 117 -8 160 -11 l77 -6 0 1990 0
1989 -72 28 c-40 16 -77 29 -83 31 -5 1 -48 13 -95 27 -73 21 -156 39 -285 61
-155 26 -481 21 -665 -10 -19 -3 -48 -7 -65 -10 -36 -5 -74 -13 -135 -26 -25
-6 -54 -12 -64 -15 -32 -6 -219 -64 -248 -77 l-28 -12 0 -329 c0 -308 1 -328
18 -321 81 31 313 90 402 102 19 2 59 8 88 12 30 5 122 8 205 7 l152 -1 0
-1214 0 -1214 -239 -3 c-387 -4 -758 -18 -1036 -39 -30 -2 -91 -7 -135 -10
-44 -4 -96 -8 -115 -10 -19 -2 -69 -7 -110 -10 -41 -4 -86 -8 -100 -10 -14 -2
-57 -7 -95 -10 -39 -3 -79 -7 -90 -9 -11 -2 -47 -7 -80 -10 -51 -6 -157 -20
-325 -42 -19 -3 -46 -7 -60 -9 -14 -2 -45 -7 -70 -10 -43 -6 -412 -68 -475
-80 -16 -3 -75 -15 -130 -26 -55 -11 -113 -22 -130 -25 -16 -3 -100 -21 -185
-40 -85 -19 -165 -37 -178 -40 -13 -2 -69 -16 -125 -30 -56 -14 -109 -27 -117
-29 -8 -1 -42 -10 -75 -19 -33 -9 -69 -19 -80 -21 -45 -8 -372 -103 -580 -169
-441 -138 -996 -350 -1390 -531 -27 -12 -81 -37 -120 -55 -94 -43 -512 -252
-567 -283 -24 -13 -74 -42 -113 -62 -116 -63 -277 -155 -306 -176 -15 -10 -29
-19 -32 -19 -6 0 -186 -109 -277 -168 -736 -474 -1376 -999 -1824 -1496 l-80
-88 -27 31 c-348 400 -826 822 -1377 1217 -272 196 -704 473 -972 622 -318
178 -739 390 -1028 517 -161 70 -219 96 -232 100 -3 1 -16 6 -30 12 -206 87
-508 201 -780 294 -149 51 -467 152 -519 165 -9 2 -38 10 -66 18 -90 27 -270
76 -295 82 -30 6 -38 8 -70 17 -14 4 -41 12 -60 17 -45 12 -367 88 -400 94
-14 2 -90 18 -170 35 -80 17 -156 32 -170 35 -14 2 -88 16 -165 30 -136 25
-183 33 -235 41 -14 3 -52 9 -85 14 -69 11 -333 49 -385 56 -19 2 -71 9 -115
15 -83 10 -148 18 -225 25 -25 2 -64 7 -87 10 -23 3 -75 8 -115 10 -40 3 -86
7 -103 10 -16 2 -75 7 -130 10 -55 4 -107 9 -116 10 -9 2 -79 7 -155 10 -77 4
-161 9 -189 10 -115 7 -505 17 -707 19 -120 1 -220 5 -224 9 -4 4 -7 550 -7
1214 l0 1208 159 0 c140 0 184 -3 294 -19 61 -9 194 -40 290 -67 58 -17 109
-32 114 -32 6 -1 10 123 11 321 l0 324 -25 13 c-83 42 -354 108 -570 139 -74
11 -355 26 -363 20z"/>
<path d="M10081 7250 c-13 -41 -27 -86 -32 -100 -43 -124 -162 -674 -183 -855
-10 -83 -18 -139 -22 -165 -9 -57 -18 -264 -17 -390 2 -157 14 -236 54 -341
50 -130 123 -193 222 -190 133 3 231 138 268 372 10 67 7 403 -5 464 -2 11 -7
52 -11 90 -4 39 -8 81 -10 95 -6 40 -15 103 -20 130 -3 14 -7 41 -10 60 -4 28
-38 189 -70 343 -2 10 -18 75 -35 145 -17 70 -33 135 -36 145 -2 9 -6 25 -9
35 -2 9 -17 67 -33 127 l-29 110 -22 -75z"/>
</g>
</svg>
