<svg width="381" height="92" viewBox="0 0 381 92" fill="none" xmlns="http://www.w3.org/2000/svg">
<path d="M368.276 4H12.7238C9.75865 4 1.93922 6.12995 0 19H381C379.073 6.12995 371.241 4 368.276 4Z" fill="url(#paint0_linear_1185_5107)"/>
<g filter="url(#filter0_d_1185_5107)">
<path d="M341.133 70.5993L193.905 79.6494C191.675 80.1169 189.374 80.1169 187.156 79.6494L39.9283 70.5993C32.2806 69.005 26.7906 62.2564 26.7906 54.4289V28.3934C26.7906 4 12.2145 4 12.2145 4H368.871C368.871 4 354.294 4 354.294 28.3934V54.4289C354.294 62.2444 348.816 68.993 341.157 70.5993H341.133Z" fill="url(#paint1_linear_1185_5107)"/>
</g>
<defs>
<filter id="filter0_d_1185_5107" x="4.21454" y="0" width="372.656" height="92" filterUnits="userSpaceOnUse" color-interpolation-filters="sRGB">
<feFlood flood-opacity="0" result="BackgroundImageFix"/>
<feColorMatrix in="SourceAlpha" type="matrix" values="0 0 0 0 0 0 0 0 0 0 0 0 0 0 0 0 0 0 127 0" result="hardAlpha"/>
<feOffset dy="4"/>
<feGaussianBlur stdDeviation="4"/>
<feComposite in2="hardAlpha" operator="out"/>
<feColorMatrix type="matrix" values="0 0 0 0 0 0 0 0 0 0 0 0 0 0 0 0 0 0 0.3 0"/>
<feBlend mode="normal" in2="BackgroundImageFix" result="effect1_dropShadow_1185_5107"/>
<feBlend mode="normal" in="SourceGraphic" in2="effect1_dropShadow_1185_5107" result="shape"/>
</filter>
<linearGradient id="paint0_linear_1185_5107" x1="190.5" y1="4" x2="190.5" y2="19" gradientUnits="userSpaceOnUse">
<stop stop-color="#98B4B9"/>
<stop offset="0.500376" stop-color="#CEE3E6"/>
<stop offset="1" stop-color="#89B4BB"/>
<stop offset="1" stop-color="#89B4BB"/>
</linearGradient>
<linearGradient id="paint1_linear_1185_5107" x1="190.543" y1="4" x2="190.543" y2="80" gradientUnits="userSpaceOnUse">
<stop stop-color="#2A8391"/>
<stop offset="0.0001" stop-color="#CDE2E5"/>
<stop offset="1" stop-color="white"/>
</linearGradient>
</defs>
</svg>
