<?xml version="1.0" encoding="UTF-8"?>
<svg id="Layer_2" xmlns="http://www.w3.org/2000/svg" viewBox="0 0 505.56 459.08">
  <defs>
    <style>
      .cls-1 {
        fill: #1b9eb0;
      }

      .cls-2 {
        fill: #0c5b73;
      }
    </style>
  </defs>
  <g id="Layer_1-2" data-name="Layer_1">
    <g>
      <g>
        <g>
          <g>
            <path class="cls-2" d="M396.46,261.07s26.25-16.76,56.63-3.99v94.09s-108.14-5.99-164.42,47.9c0,0,35.95-62.97,144.51-70.15v-62.26s-11.57-11.18-36.72-5.59Z"/>
            <path class="cls-1" d="M109.09,261.07s-26.25-16.76-56.63-3.99v94.09s108.14-5.99,164.42,47.9c0,0-35.95-62.97-144.51-70.15v-62.26s11.57-11.18,36.72-5.59Z"/>
          </g>
          <g>
            <path class="cls-1" d="M462.12,296.25v16.31c8.88-2.86,13.73-3.48,21.69-3.18v60.91c-160.44-1.2-231.49,88.8-231.49,88.8,103.55-78.42,253.25-63.46,253.25-63.46v-99.38c-21.35-9.39-43.44,0-43.44,0Z"/>
            <path class="cls-2" d="M43.44,296.25v16.31c-8.88-2.86-13.73-3.48-21.69-3.18v60.91c160.44-1.2,231.49,88.8,231.49,88.8C149.7,380.66,0,395.63,0,395.63v-99.38c21.35-9.39,43.44,0,43.44,0Z"/>
          </g>
        </g>
        <g>
          <path class="cls-1" d="M271.11,363.18c3.57-25.6,14.72-45.89,34.51-61.33,8.51-6.63,17.96-11.52,28.16-15.01,2.67-.91,5.34-1.87,8.07-2.58,13.89-3.64,26.45-9.84,37.45-19.14.67-.57,1.53-.92,2.76-1.63.94,3.17-.07,5.81-.75,8.37-4.61,17.36-13.18,32.53-25.41,45.66-12.3,13.22-26.94,22.61-44.67,26.59-13.41,3.01-25.71,8.14-36.3,17.05-.86.73-2.04,1.09-3.83,2.01Z"/>
          <path class="cls-2" d="M232.66,362.4c-1.35-.32-1.73-.3-1.94-.48-10.8-9.18-23.31-14.65-37.09-17.73-35.65-7.98-63.89-43.32-70.37-75.67-.28-1.4-.04-2.91-.04-5.19,2.48,1.8,4.28,3.02,6,4.35,9.83,7.64,20.9,12.73,32.74,16.44,7.19,2.25,14.43,4.64,21.18,7.94,25.24,12.34,41.48,32.22,48.33,59.58.53,2.13.88,4.32,1.17,6.49.16,1.19.03,2.43.03,4.26Z"/>
          <path class="cls-2" d="M227.82,298.58c-1.59-1.07-3.24-1.92-4.57-3.12-9.28-8.36-19.99-14.06-31.89-17.71-23.38-7.17-40.5-22.33-53.35-42.63-7.64-12.07-12.5-25.23-14.18-39.5,2-1.03,2.94.58,4.04,1.44,10.01,7.83,21.12,13.51,33.15,17.6,16,5.43,30.43,13.55,42.1,26.03,14.93,15.95,23.36,34.8,25.13,56.6.02.29-.19.59-.43,1.29Z"/>
          <path class="cls-1" d="M381.73,195c-.65,3.79-.96,6.53-1.6,9.19-5.62,23.47-17.85,42.83-36.49,58.1-6.62,5.43-14.05,9.54-22.1,12.49-4.43,1.62-8.86,3.23-13.32,4.77-8.73,3.03-16.55,7.58-23.64,13.5-2.28,1.9-4.17,4.5-7.94,5.51,4.04-34.93,20.38-60.85,51.38-76.91,5.29-2.74,10.82-5.15,16.46-7.07,12.03-4.11,23.23-9.64,33.22-17.56.86-.68,1.99-1.02,4.03-2.03Z"/>
          <path class="cls-1" d="M252.53,283.05c-12.93-14.83-20.7-38.62-20.49-58.53.15-14.26,10.76-42.25,20.85-51.85,10.93,17.65,20.26,35.57,19.57,57.13-.27,8.3-1.81,16.26-4.8,23.92-4.01,10.27-9.36,19.87-15.14,29.33Z"/>
          <path class="cls-2" d="M252.35,299.35c3.73,13.67,6.5,25.28,6.93,37.31.15,4.11.02,8.2-2.03,11.95-1.12,2.05-2.58,3.6-5.12,3.52-2.1-.06-3.58-1.32-4.46-3.03-.85-1.64-1.58-3.46-1.81-5.28-.36-2.79-.46-5.66-.33-8.47.54-11.67,2.98-22.98,6.82-36.01Z"/>
        </g>
      </g>
      <g>
        <path class="cls-1" d="M450.74,121.05c-3.93-28.57-17.75-42.73-49.59-47.49-26.73-4-53.73-6.54-80.7-8.51-21.25-1.55-41.23,3.31-57.95,17.71-1.23,1.06-2.56,2.31-4.05,2.7-1.98.53-4.16.31-6.26.41.13-2.46-.69-5.78.59-7.21,2.85-3.17,6.75-5.4,10.22-8.01.85-.64,1.7-1.3,2.53-1.93-3.16-5.18-7.62-7-13.46-4.95-8.01,2.82-13.08,8.53-14.17,17.07-.93,7.29,1.88,13.33,8.08,17.28,7.03,4.47,14.17,3.63,21.02-.77,1.37-.88,2.71-1.85,3.93-2.92,11.84-10.42,26.24-14.19,41.38-14.33,30.6-.29,60.92,3.43,91,8.79,5.97,1.06,11.88,3.53,17.31,6.34,10.58,5.49,16.64,14.34,17.15,26.56.21,5.06.45,10.11.7,15.46,1.8.28,3.34.52,5.2.81v8.98h-23.55c.32-3.74-2.49-7.54,2.94-10.58,3.49-1.96-.55-14.09-4.7-15.02-46.27-10.38-91.1-6.84-133.6,15.09-11.19,5.78-21.29,13.68-32.72,21.15-.31-.24-1.84-1.43-3.34-2.65-37.42-30.62-80.82-41.98-128.27-38.27-16.16,1.26-32.05,5.8-48.1,8.67-2.37.42-5.12.45-7.34-.34-17.27-6.19-34.45-12.61-51.65-19.02-2.03-.75-4.13-1.57-5.85-2.83-3.46-2.53-3.3-7.21.3-9.56,1.95-1.27,4.19-2.17,6.4-2.96C91.6,63.26,168.2,33.74,243.9,1.9c6.36-2.68,11.96-2.41,18.25.1,45.89,18.32,91.79,36.62,137.85,54.49,29.63,11.5,59.54,22.26,89.32,33.38,2.54.95,5.38,1.68,7.38,3.35,1.87,1.55,3.89,4.24,3.84,6.39-.04,1.73-2.76,4.17-4.81,4.96-12.2,4.71-24.54,9.03-36.84,13.48-2.71.98-5.42,1.99-8.16,3Z"/>
        <path class="cls-1" d="M410.44,190.7c1.43-6.7,2.29-13.58,4.42-20.04,2.74-8.31,9.08-11.91,18.16-11.68,8.15.2,13.73,3.77,16,12.14,2.02,7.43,3.32,15.25,3.55,22.94.37,12.64-8.87,22.33-20.68,23.02-10.12.59-18.97-8.38-20.43-20.77-.21-1.8-.19-3.62-.27-5.43-.25-.06-.5-.11-.75-.17Z"/>
      </g>
    </g>
  </g>
</svg>