<?xml version="1.0" encoding="UTF-8"?>
<svg id="Layer_2" xmlns="http://www.w3.org/2000/svg" viewBox="0 0 1300.24 766.05">
  <defs>
    <style>
      .cls-1 {
        fill: #fff;
      }
    </style>
  </defs>
  <g id="Layer_1-2" data-name="Layer_1">
    <g>
      <g>
        <g>
          <g>
            <g>
              <path class="cls-1" d="M396.46,261.07s26.25-16.76,56.63-3.99v94.09s-108.14-5.99-164.42,47.9c0,0,35.95-62.97,144.51-70.15v-62.26s-11.57-11.18-36.72-5.59Z"/>
              <path class="cls-1" d="M109.09,261.07s-26.25-16.76-56.63-3.99v94.09s108.14-5.99,164.42,47.9c0,0-35.95-62.97-144.51-70.15v-62.26s11.57-11.18,36.72-5.59Z"/>
            </g>
            <g>
              <path class="cls-1" d="M462.12,296.25v16.31c8.88-2.86,13.73-3.48,21.69-3.18v60.91c-160.44-1.2-231.49,88.8-231.49,88.8,103.55-78.42,253.25-63.46,253.25-63.46v-99.38c-21.35-9.39-43.44,0-43.44,0Z"/>
              <path class="cls-1" d="M43.44,296.25v16.31c-8.88-2.86-13.73-3.48-21.69-3.18v60.91c160.44-1.2,231.49,88.8,231.49,88.8C149.7,380.66,0,395.63,0,395.63v-99.38c21.35-9.39,43.44,0,43.44,0Z"/>
            </g>
          </g>
          <g>
            <path class="cls-1" d="M271.11,363.18c3.57-25.6,14.72-45.89,34.51-61.33,8.51-6.63,17.96-11.52,28.16-15.01,2.67-.91,5.34-1.87,8.07-2.58,13.89-3.64,26.45-9.84,37.45-19.14.67-.57,1.53-.92,2.76-1.63.94,3.17-.07,5.81-.75,8.37-4.61,17.36-13.18,32.53-25.41,45.66-12.3,13.22-26.94,22.61-44.67,26.59-13.41,3.01-25.71,8.14-36.3,17.05-.86.73-2.04,1.09-3.83,2.01Z"/>
            <path class="cls-1" d="M232.66,362.4c-1.35-.32-1.73-.3-1.94-.48-10.8-9.18-23.31-14.65-37.09-17.73-35.65-7.98-63.89-43.32-70.37-75.67-.28-1.4-.04-2.91-.04-5.19,2.48,1.8,4.28,3.02,6,4.35,9.83,7.64,20.9,12.73,32.74,16.44,7.19,2.25,14.43,4.64,21.18,7.94,25.24,12.34,41.48,32.22,48.33,59.58.53,2.13.88,4.32,1.17,6.49.16,1.19.03,2.43.03,4.26Z"/>
            <path class="cls-1" d="M227.82,298.58c-1.59-1.07-3.24-1.92-4.57-3.12-9.28-8.36-19.99-14.06-31.89-17.71-23.38-7.17-40.5-22.33-53.35-42.63-7.64-12.07-12.5-25.23-14.18-39.5,2-1.03,2.94.58,4.04,1.44,10.01,7.83,21.12,13.51,33.15,17.6,16,5.43,30.43,13.55,42.1,26.03,14.93,15.95,23.36,34.8,25.13,56.6.02.29-.19.59-.43,1.29Z"/>
            <path class="cls-1" d="M381.73,195c-.65,3.79-.96,6.53-1.6,9.19-5.62,23.47-17.85,42.83-36.49,58.1-6.62,5.43-14.05,9.54-22.1,12.49-4.43,1.62-8.86,3.23-13.32,4.77-8.73,3.03-16.55,7.58-23.64,13.5-2.28,1.9-4.17,4.5-7.94,5.51,4.04-34.93,20.38-60.85,51.38-76.91,5.29-2.74,10.82-5.15,16.46-7.07,12.03-4.11,23.23-9.64,33.22-17.56.86-.68,1.99-1.02,4.03-2.03Z"/>
            <path class="cls-1" d="M252.53,283.05c-12.93-14.83-20.7-38.62-20.49-58.53.15-14.26,10.76-42.25,20.85-51.85,10.93,17.65,20.26,35.57,19.57,57.13-.27,8.3-1.81,16.26-4.8,23.92-4.01,10.27-9.36,19.87-15.14,29.33Z"/>
            <path class="cls-1" d="M252.35,299.35c3.73,13.67,6.5,25.28,6.93,37.31.15,4.11.02,8.2-2.03,11.95-1.12,2.05-2.58,3.6-5.12,3.52-2.1-.06-3.58-1.32-4.46-3.03-.85-1.64-1.58-3.46-1.81-5.28-.36-2.79-.46-5.66-.33-8.47.54-11.67,2.98-22.98,6.82-36.01Z"/>
          </g>
        </g>
        <g>
          <path class="cls-1" d="M450.74,121.05c-3.93-28.57-17.75-42.73-49.59-47.49-26.73-4-53.73-6.54-80.7-8.51-21.25-1.55-41.23,3.31-57.95,17.71-1.23,1.06-2.56,2.31-4.05,2.7-1.98.53-4.16.31-6.26.41.13-2.46-.69-5.78.59-7.21,2.85-3.17,6.75-5.4,10.22-8.01.85-.64,1.7-1.3,2.53-1.93-3.16-5.18-7.62-7-13.46-4.95-8.01,2.82-13.08,8.53-14.17,17.07-.93,7.29,1.88,13.33,8.08,17.28,7.03,4.47,14.17,3.63,21.02-.77,1.37-.88,2.71-1.85,3.93-2.92,11.84-10.42,26.24-14.19,41.38-14.33,30.6-.29,60.92,3.43,91,8.79,5.97,1.06,11.88,3.53,17.31,6.34,10.58,5.49,16.64,14.34,17.15,26.56.21,5.06.45,10.11.7,15.46,1.8.28,3.34.52,5.2.81v8.98h-23.55c.32-3.74-2.49-7.54,2.94-10.58,3.49-1.96-.55-14.09-4.7-15.02-46.27-10.38-91.1-6.84-133.6,15.09-11.19,5.78-21.29,13.68-32.72,21.15-.31-.24-1.84-1.43-3.34-2.65-37.42-30.62-80.82-41.98-128.27-38.27-16.16,1.26-32.05,5.8-48.1,8.67-2.37.42-5.12.45-7.34-.34-17.27-6.19-34.45-12.61-51.65-19.02-2.03-.75-4.13-1.57-5.85-2.83-3.46-2.53-3.3-7.21.3-9.56,1.95-1.27,4.19-2.17,6.4-2.96C91.6,63.26,168.2,33.74,243.9,1.9c6.36-2.68,11.96-2.41,18.25.1,45.89,18.32,91.79,36.62,137.85,54.49,29.63,11.5,59.54,22.26,89.32,33.38,2.54.95,5.38,1.68,7.38,3.35,1.87,1.55,3.89,4.24,3.84,6.39-.04,1.73-2.76,4.17-4.81,4.96-12.2,4.71-24.54,9.03-36.84,13.48-2.71.98-5.42,1.99-8.16,3Z"/>
          <path class="cls-1" d="M410.44,190.7c1.43-6.7,2.29-13.58,4.42-20.04,2.74-8.31,9.08-11.91,18.16-11.68,8.15.2,13.73,3.77,16,12.14,2.02,7.43,3.32,15.25,3.55,22.94.37,12.64-8.87,22.33-20.68,23.02-10.12.59-18.97-8.38-20.43-20.77-.21-1.8-.19-3.62-.27-5.43-.25-.06-.5-.11-.75-.17Z"/>
        </g>
      </g>
      <g>
        <path class="cls-1" d="M685.62,303.23l14.5,18.35c-3.95,4.73-9.57,8.93-16.87,12.58-7.3,3.65-17.07,5.47-29.3,5.47-18.94,0-33.39-4.63-43.35-13.91-9.96-9.27-14.94-21.8-14.94-37.58,0-11.44,2.41-21.01,7.25-28.7,4.83-7.69,11.84-14.2,21.01-19.53,9.17-5.33,20.07-10.06,32.7-14.2l29.3-9.77v39.36l-25.75,7.99c-8.88,2.77-14.99,5.87-18.35,9.32-3.36,3.45-5.03,7.65-5.03,12.58s1.87,8.68,5.62,11.25c3.75,2.57,8.97,3.85,15.68,3.85,5.92,0,11.29-1.13,16.13-3.4,4.83-2.27,7.64-4.98,8.43-8.14l-3.55,18.35v-95.58c0-11.05,7.3-16.57,21.9-16.57,3.94,0,7.74.3,11.39.89,3.65.59,6.36,1.18,8.14,1.78v92.03c0,6.91,1.43,11.69,4.29,14.35,2.86,2.66,6.46,3.99,10.8,3.99h4.44v44.09h-6.21c-13.02,0-24.02-3.89-33-11.69-8.98-7.79-14.06-20.17-15.24-37.14ZM670.53,173.92c-6.12,0-11.1-1.87-14.94-5.62-3.85-3.75-5.77-8.78-5.77-15.09s1.92-11.29,5.77-14.94c3.85-3.65,8.83-5.47,14.94-5.47s11.29,1.83,14.94,5.47c3.65,3.65,5.47,8.63,5.47,14.94s-1.83,11.35-5.47,15.09c-3.65,3.75-8.63,5.62-14.94,5.62ZM719.65,173.62c-6.32,0-11.35-1.87-15.09-5.62-3.75-3.75-5.62-8.68-5.62-14.8,0-6.51,1.87-11.59,5.62-15.24,3.75-3.65,8.78-5.47,15.09-5.47s11.29,1.83,14.94,5.47c3.65,3.65,5.47,8.73,5.47,15.24,0,6.12-1.83,11.05-5.47,14.8-3.65,3.75-8.63,5.62-14.94,5.62ZM740.07,352.06v-44.09c1.58,2.57,2.81,5.67,3.7,9.32.89,3.65,1.33,7.84,1.33,12.58s-.44,8.98-1.33,12.72c-.89,3.75-2.12,6.91-3.7,9.47Z"/>
        <path class="cls-1" d="M735.33,352.06v-44.09h7.1c7.3,0,13.56-1.58,18.79-4.73,5.22-3.15,7.94-9.37,8.14-18.64l1.18-36.1c2.37-.79,4.98-1.53,7.84-2.22,2.86-.69,6.26-1.04,10.21-1.04,4.93,0,9.37,1.33,13.32,3.99,3.94,2.66,6.02,7.35,6.21,14.06l1.18,21.9c.39,9.08,3.2,15.14,8.43,18.2,5.22,3.06,11.49,4.59,18.79,4.59h6.21v44.09h-6.81c-6.91,0-13.76-1.04-20.57-3.11-6.81-2.07-12.63-5.33-17.46-9.77-4.84-4.44-8.14-10.31-9.91-17.61l2.66-.3c-.79,7.5-3.65,13.46-8.58,17.9-4.93,4.44-10.85,7.69-17.75,9.77-6.91,2.07-13.71,3.11-20.42,3.11h-8.58ZM789.78,414.2c-6.71,0-12.09-2.02-16.13-6.07s-6.07-9.32-6.07-15.83,2.02-11.79,6.07-15.83c4.04-4.05,9.32-6.07,15.83-6.07s11.99,2.02,15.83,6.07c3.85,4.04,5.77,9.32,5.77,15.83s-1.92,11.79-5.77,15.83c-3.85,4.04-9.03,6.07-15.54,6.07ZM842.75,352.06v-44.09c1.58,2.57,2.81,5.67,3.7,9.32.89,3.65,1.33,7.84,1.33,12.58s-.44,8.98-1.33,12.72c-.89,3.75-2.12,6.91-3.7,9.47Z"/>
        <path class="cls-1" d="M991.01,276.6l5.62,12.72c-10.85-4.54-20.67-8.58-29.44-12.13-8.78-3.55-17.31-6.46-25.6-8.73-8.29-2.27-17.07-3.4-26.34-3.4s-17.02,1.29-24.41,3.85c-7.4,2.57-13.76,6.12-19.09,10.65-3.75-2.17-7.3-5.42-10.65-9.77-3.36-4.34-5.03-9.77-5.03-16.28,0-6.9,2.41-12.67,7.25-17.31,4.83-4.63,11.39-8.09,19.68-10.36,8.29-2.27,17.36-3.4,27.22-3.4,11.05,0,21.94,1.38,32.7,4.14,10.75,2.77,20.86,6.27,30.33,10.51,9.47,4.24,18,8.48,25.6,12.72,7.59,4.24,13.66,7.74,18.2,10.51,1.38,3.36,2.56,6.81,3.55,10.36.99,3.55,1.38,8.09,1.18,13.61-.2,4.34-.59,8.14-1.18,11.39-.59,3.26-1.48,5.97-2.66,8.14-8.29,4.34-17.9,9.22-28.85,14.65-10.95,5.43-23.08,10.7-36.4,15.83-13.32,5.13-27.47,9.37-42.46,12.72-15,3.36-30.68,5.03-47.05,5.03h-25.15v-44.09h24.56c16.57,0,32.15-1.53,46.76-4.59,14.6-3.06,28.7-6.95,42.32-11.69,13.61-4.73,26.73-9.77,39.36-15.09ZM937.45,205.88c-6.71,0-12.09-2.02-16.13-6.07-4.05-4.04-6.07-9.32-6.07-15.83s2.02-11.79,6.07-15.83,9.32-6.07,15.83-6.07,11.99,2.02,15.83,6.07c3.85,4.05,5.77,9.32,5.77,15.83s-1.92,11.79-5.77,15.83c-3.85,4.05-9.03,6.07-15.54,6.07ZM1044.27,352.06c-17.95,0-31.27-4.54-39.95-13.61-8.68-9.07-13.12-20.81-13.32-35.21l30.48-16.28c0,5.33.89,9.57,2.66,12.72,1.78,3.16,4.44,5.33,7.99,6.51s7.79,1.78,12.72,1.78h4.44v44.09h-5.03ZM1049.3,352.06v-44.09c1.78,2.57,3.11,5.67,4,9.32.89,3.65,1.33,7.84,1.33,12.58s-.44,8.98-1.33,12.72c-.89,3.75-2.22,6.91-4,9.47Z"/>
        <path class="cls-1" d="M1044.57,307.97h64.21v44.09h-64.21v-44.09ZM1108.78,352.06v-44.09c1.78,2.57,3.11,5.67,4,9.32.89,3.65,1.33,7.84,1.33,12.58s-.49,8.98-1.48,12.72c-.99,3.75-2.27,6.91-3.85,9.47Z"/>
        <path class="cls-1" d="M1104.05,307.97h64.21v44.09h-64.21v-44.09ZM1168.26,352.06v-44.09c1.78,2.57,3.11,5.67,4,9.32.89,3.65,1.33,7.84,1.33,12.58s-.49,8.98-1.48,12.72c-.99,3.75-2.27,6.91-3.85,9.47Z"/>
        <path class="cls-1" d="M1163.53,352.06v-44.09h6.51c4.54,0,9.17-.39,13.91-1.18,4.74-.79,9.07-1.82,13.02-3.11,3.94-1.28,6.81-2.61,8.58-4,.39-5.52.1-12.38-.89-20.57-.99-8.18-2.37-16.67-4.14-25.45-1.78-8.78-3.45-16.52-5.03-23.23,2.17-1.58,5.18-3.11,9.03-4.59s7.84-2.22,11.98-2.22c6.9,0,12.38,1.73,16.42,5.18,4.04,3.45,7.05,9.91,9.03,19.38.99,3.75,1.78,8.19,2.37,13.32.59,5.13,1.04,10.16,1.33,15.09.3,4.93.44,9.27.44,13.02,0,12.04-1.43,21.9-4.29,29.59-2.86,7.69-8.43,14.2-16.72,19.53-6.12,3.75-14.16,6.91-24.12,9.47-9.96,2.57-19.97,3.85-30.04,3.85h-7.4ZM1212.95,202.92c-6.71,0-12.09-2.02-16.13-6.07-4.05-4.04-6.07-9.32-6.07-15.83s2.02-11.79,6.07-15.83,9.32-6.07,15.83-6.07,11.98,2.03,15.83,6.07c3.85,4.05,5.77,9.32,5.77,15.83s-1.92,11.79-5.77,15.83c-3.85,4.05-9.03,6.07-15.54,6.07Z"/>
        <path class="cls-1" d="M283.17,687.63c0,14.8-3.4,28.11-10.21,39.95-6.81,11.84-16.38,21.21-28.7,28.11-12.33,6.9-27.18,10.36-44.54,10.36s-31.96-3.01-44.98-9.03c-13.02-6.02-23.23-15-30.63-26.93-7.4-11.94-11.1-26.68-11.1-44.24s2.56-29,7.69-36.69c5.13-7.69,12.03-11.54,20.71-11.54,4.14,0,7.89.64,11.25,1.92,3.35,1.29,6.21,2.91,8.58,4.88-1.97,6.71-3.5,12.63-4.59,17.75-1.09,5.13-1.63,11.15-1.63,18.05,0,12.83,3.89,23.04,11.69,30.63,7.79,7.59,19.18,11.39,34.18,11.39,7.1,0,13.32-1.04,18.64-3.11s9.77-4.73,13.32-7.99c3.55-3.25,6.26-6.81,8.14-10.65,1.87-3.85,3.01-7.64,3.4-11.39l-1.78-179.92c1.97-.39,4.88-.89,8.73-1.48,3.85-.59,7.84-.89,11.98-.89,15.39,0,23.08,6.21,23.08,18.64l-.89,157.13-2.37,5.03ZM304.77,707.16c-7.1,0-13.07-1.78-17.9-5.33-4.84-3.55-8.43-8.53-10.8-14.94-2.37-6.41-3.65-13.66-3.85-21.75l13.61-21.31c0,4.93.89,8.78,2.66,11.54,1.78,2.76,4.19,4.73,7.25,5.92,3.06,1.18,6.16,1.78,9.32,1.78h5.03v44.09h-5.33ZM310.1,707.16v-44.09c1.78,2.57,3.11,5.67,4,9.32.89,3.65,1.33,7.84,1.33,12.58s-.5,8.98-1.48,12.72c-.99,3.75-2.27,6.91-3.85,9.47Z"/>
        <path class="cls-1" d="M305.37,663.07h64.21v44.09h-64.21v-44.09ZM369.58,707.16v-44.09c1.78,2.57,3.11,5.67,4,9.32.89,3.65,1.33,7.84,1.33,12.58s-.5,8.98-1.48,12.72c-.99,3.75-2.27,6.91-3.85,9.47Z"/>
        <path class="cls-1" d="M364.85,663.07h64.21v44.09h-64.21v-44.09ZM429.06,707.16v-44.09c1.78,2.57,3.11,5.67,4,9.32.89,3.65,1.33,7.84,1.33,12.58s-.5,8.98-1.48,12.72c-.99,3.75-2.27,6.91-3.85,9.47Z"/>
        <path class="cls-1" d="M424.32,663.07h64.21v44.09h-64.21v-44.09ZM488.54,707.16v-44.09c1.78,2.57,3.11,5.67,4,9.32.89,3.65,1.33,7.84,1.33,12.58s-.49,8.98-1.48,12.72c-.99,3.75-2.27,6.91-3.85,9.47Z"/>
        <path class="cls-1" d="M483.8,663.07h64.21v44.09h-64.21v-44.09ZM548.02,707.16v-44.09c1.78,2.57,3.11,5.67,4,9.32.89,3.65,1.33,7.84,1.33,12.58s-.49,8.98-1.48,12.72c-.99,3.75-2.27,6.91-3.85,9.47Z"/>
        <path class="cls-1" d="M543.28,663.07h64.21v44.09h-64.21v-44.09ZM607.5,707.16v-44.09c1.78,2.57,3.11,5.67,4,9.32.89,3.65,1.33,7.84,1.33,12.58s-.49,8.98-1.48,12.72c-.99,3.75-2.27,6.91-3.85,9.47Z"/>
        <path class="cls-1" d="M602.76,663.07h64.21v44.09h-64.21v-44.09ZM666.98,707.16v-44.09c1.78,2.57,3.11,5.67,4,9.32.89,3.65,1.33,7.84,1.33,12.58s-.49,8.98-1.48,12.72c-.99,3.75-2.27,6.91-3.85,9.47Z"/>
        <path class="cls-1" d="M662.24,663.07h64.21v44.09h-64.21v-44.09ZM726.46,707.16v-44.09c1.78,2.57,3.11,5.67,4,9.32.89,3.65,1.33,7.84,1.33,12.58s-.49,8.98-1.48,12.72c-.99,3.75-2.27,6.91-3.85,9.47Z"/>
        <path class="cls-1" d="M721.72,663.07h64.21v44.09h-64.21v-44.09ZM785.94,707.16v-44.09c1.78,2.57,3.11,5.67,4,9.32.89,3.65,1.33,7.84,1.33,12.58s-.49,8.98-1.48,12.72c-.99,3.75-2.27,6.91-3.85,9.47Z"/>
        <path class="cls-1" d="M781.2,663.07h64.21v44.09h-64.21v-44.09ZM845.42,707.16v-44.09c1.78,2.57,3.11,5.67,4,9.32.89,3.65,1.33,7.84,1.33,12.58s-.49,8.98-1.48,12.72c-.99,3.75-2.27,6.91-3.85,9.47Z"/>
        <path class="cls-1" d="M840.68,663.07h64.21v44.09h-64.21v-44.09ZM904.9,707.16v-44.09c1.78,2.57,3.11,5.67,4,9.32.89,3.65,1.33,7.84,1.33,12.58s-.49,8.98-1.48,12.72c-.99,3.75-2.27,6.91-3.85,9.47Z"/>
        <path class="cls-1" d="M900.16,707.16v-44.39h4.44c5.33,0,9.71-1.18,13.17-3.55,3.45-2.37,6.36-5.33,8.73-8.88,2.37-3.55,4.44-7,6.21-10.36,5.72-11.44,11.79-21.35,18.2-29.74,6.41-8.38,13.61-14.94,21.6-19.68,7.99-4.73,17.02-7.1,27.08-7.1,11.64,0,22,2.96,31.07,8.88,9.07,5.92,16.28,14.11,21.6,24.56,5.33,10.46,7.99,22.59,7.99,36.4,0,16.57-5.03,29.64-15.09,39.21-10.06,9.57-23.48,14.35-40.25,14.35-8.68,0-16.97-1.18-24.86-3.55-7.89-2.37-14.9-5.62-21.01-9.77-6.12-4.14-10.75-8.88-13.91-14.2l7.4.59c-3.95,7.5-9.96,13.91-18.05,19.23-8.09,5.33-17.66,7.99-28.7,7.99h-5.62ZM1002.84,665.44c5.92,0,10.55-1.43,13.91-4.29,3.35-2.86,5.03-6.66,5.03-11.39,0-3.94-.79-7.74-2.37-11.39-1.58-3.65-3.95-6.61-7.1-8.88-3.16-2.27-7.2-3.4-12.13-3.4-6.91,0-12.83,2.57-17.76,7.69-4.93,5.13-9.08,11.25-12.43,18.35,3.94,4.34,8.88,7.65,14.8,9.91,5.92,2.27,11.93,3.4,18.05,3.4Z"/>
        <path class="cls-1" d="M1137.78,488.78c.99,1.78,1.72,3.8,2.22,6.07.49,2.27.74,4.39.74,6.36,0,3.55-.84,6.17-2.51,7.84-1.68,1.68-4.79,2.91-9.32,3.7-8.68,1.58-17.9,3.25-27.67,5.03-9.76,1.78-19.29,3.85-28.56,6.21-1.18-1.58-2.27-3.55-3.25-5.92-.99-2.37-1.48-4.93-1.48-7.69,0-3.15,1.14-5.52,3.4-7.1,2.27-1.58,5.37-2.86,9.32-3.85,6.31-1.38,12.77-2.71,19.38-3.99,6.61-1.28,13.12-2.52,19.53-3.7,6.41-1.18,12.47-2.17,18.2-2.96ZM1109.67,452.97c6.9,0,12.53,1.33,16.87,4,4.34,2.66,6.51,6.76,6.51,12.28,0,1.97-.44,3.95-1.33,5.92-.89,1.97-1.92,3.75-3.11,5.33-1.78-1.18-3.85-2.12-6.21-2.81-2.37-.69-4.84-1.04-7.4-1.04-4.54,0-7.89.84-10.06,2.52-2.17,1.68-3.25,3.9-3.25,6.66,0,2.17.74,4.14,2.22,5.92,1.48,1.78,3.7,2.96,6.66,3.55l-20.12,5.33c-4.14-1.58-7.5-4.09-10.06-7.55-2.57-3.45-3.85-7.94-3.85-13.46,0-8.09,3.11-14.55,9.32-19.38,6.21-4.83,14.15-7.25,23.82-7.25ZM1160.86,711.6c-10.85,0-22.1-.94-33.73-2.81-11.64-1.87-22.69-5.08-33.14-9.62-1.58-4.93-2.76-9.57-3.55-13.91-.79-4.34-1.18-9.77-1.18-16.28,0-3.75.25-7.55.74-11.39.49-3.85,1.23-7.44,2.22-10.8,7.69-4.54,16.67-10.01,26.93-16.42,10.26-6.41,20.71-14.45,31.37-24.12l4.73-3.85c4.34-4.14,8.09-8.88,11.25-14.2,3.15-5.33,5.62-12.03,7.4-20.12,1.78-8.09,2.66-17.95,2.66-29.59v-29.3c1.97-.39,4.78-.89,8.43-1.48,3.65-.59,7.44-.89,11.39-.89,7.5,0,13.17,1.63,17.02,4.88,3.85,3.25,5.77,9.03,5.77,17.31v14.5c0,12.83-1.23,23.97-3.7,33.44-2.47,9.47-5.67,17.56-9.62,24.27-3.95,6.71-7.94,12.33-11.98,16.87-4.05,4.54-7.35,8.09-9.91,10.65l-2.37,5.62c-8.68,7.3-17.21,13.46-25.6,18.5-8.39,5.03-17.21,9.52-26.48,13.46,4.54,1.58,9.32,2.62,14.35,3.11,5.03.5,9.81.74,14.35.74,5.92,0,10.6-.44,14.06-1.33,3.45-.89,5.92-2.07,7.4-3.55,1.48-1.48,2.22-3.11,2.22-4.88,0-4.34-1.58-8.68-4.73-13.02-3.16-4.34-8.09-9.37-14.8-15.09l-9.77-7.4c-4.14-3.15-8.83-6.66-14.06-10.5-5.23-3.85-10.56-7.74-15.98-11.69-5.43-3.94-10.5-7.59-15.24-10.95-4.73-3.35-8.68-6.21-11.84-8.58-4.14-2.96-7.15-5.92-9.03-8.88-1.88-2.96-2.81-6.02-2.81-9.17,0-6.31,1.92-11.64,5.77-15.98,3.85-4.34,8.23-8.09,13.17-11.25,10.45,7.69,22.49,16.72,36.1,27.08s26.63,21.16,39.06,32.4l9.17,7.99c12.82,10.06,22.05,20.32,27.67,30.78,5.62,10.46,8.43,20.91,8.43,31.37,0,14.8-5.38,25.85-16.13,33.14-10.75,7.3-26.09,10.95-46.01,10.95Z"/>
        <path class="cls-1" d="M1280.71,709.83c-7.89,0-13.76-1.33-17.61-4-3.85-2.66-5.77-7.94-5.77-15.83l-1.18-180.81c2.17-.39,5.18-.89,9.03-1.48,3.85-.59,7.84-.89,11.99-.89,15.39,0,23.08,6.21,23.08,18.64l-.89,181.69c-1.78.59-4.29,1.18-7.55,1.78s-6.95.89-11.1.89Z"/>
      </g>
    </g>
  </g>
</svg>